<mxfile modified="2023-11-02T10:40:52.460Z" host="Electron" agent="Mozilla/5.0 (Windows NT 10.0; Win64; x64) AppleWebKit/537.36 (KHTML, like Gecko) draw.io/22.0.3 Chrome/114.0.5735.289 Electron/25.8.4 Safari/537.36" etag="Bvb-zL1Ful2Zsd3qO1lC" version="22.0.3" type="device">
  <diagram id="Ht1M8jgEwFfnCIfOTk4-" name="Page-1">
    <mxGraphModel dx="2821" dy="1785" grid="1" gridSize="4" guides="1" tooltips="1" connect="1" arrows="1" fold="1" page="1" pageScale="1" pageWidth="1169" pageHeight="827" math="0" shadow="0">
      <root>
        <mxCell id="0" />
        <mxCell id="1" parent="0" />
        <mxCell id="y_hJPUTwGHVDO47t9u5H-77" value="" style="whiteSpace=wrap;html=1;shape=mxgraph.basic.document;fillColor=none;strokeColor=#CC0000;strokeWidth=3;" parent="1" vertex="1">
          <mxGeometry x="-192" y="-280" width="32" height="40" as="geometry" />
        </mxCell>
        <mxCell id="eYxBuY7Py7PClH6O-nrH-7" value="Corporate data center" style="points=[[0,0],[0.25,0],[0.5,0],[0.75,0],[1,0],[1,0.25],[1,0.5],[1,0.75],[1,1],[0.75,1],[0.5,1],[0.25,1],[0,1],[0,0.75],[0,0.5],[0,0.25]];outlineConnect=0;html=1;whiteSpace=wrap;fontSize=12;fontStyle=0;container=1;pointerEvents=0;collapsible=0;recursiveResize=0;shape=mxgraph.aws4.group;grIcon=mxgraph.aws4.group_corporate_data_center;strokeColor=#909090;fillColor=none;verticalAlign=top;align=left;spacingLeft=30;fontColor=#1A1A1A;dashed=0;rounded=0;labelBackgroundColor=none;" parent="1" vertex="1">
          <mxGeometry x="-554" y="-704" width="308" height="608" as="geometry" />
        </mxCell>
        <mxCell id="y_hJPUTwGHVDO47t9u5H-24" value="Local Network" style="fillColor=none;strokeColor=#5A6C86;dashed=1;verticalAlign=top;fontStyle=0;fontColor=#5A6C86;whiteSpace=wrap;html=1;" parent="eYxBuY7Py7PClH6O-nrH-7" vertex="1">
          <mxGeometry x="20" y="288" width="260" height="300" as="geometry" />
        </mxCell>
        <mxCell id="y_hJPUTwGHVDO47t9u5H-6" value="" style="outlineConnect=0;fontColor=#232F3E;gradientColor=none;fillColor=#232F3D;strokeColor=none;dashed=0;verticalLabelPosition=bottom;verticalAlign=top;align=center;html=1;fontSize=12;fontStyle=0;aspect=fixed;pointerEvents=1;shape=mxgraph.aws4.traditional_server;hachureGap=4;fontFamily=Architects Daughter;fontSource=https%3A%2F%2Ffonts.googleapis.com%2Fcss%3Ffamily%3DArchitects%2BDaughter;rounded=0;opacity=90;" parent="eYxBuY7Py7PClH6O-nrH-7" vertex="1">
          <mxGeometry x="162" y="399" width="45" height="78" as="geometry" />
        </mxCell>
        <mxCell id="y_hJPUTwGHVDO47t9u5H-26" value="" style="sketch=0;outlineConnect=0;fontColor=#232F3E;gradientColor=none;fillColor=#f5ab50;strokeColor=none;dashed=0;verticalLabelPosition=bottom;verticalAlign=top;align=center;html=1;fontSize=12;fontStyle=0;aspect=fixed;pointerEvents=1;shape=mxgraph.aws4.disk;" parent="eYxBuY7Py7PClH6O-nrH-7" vertex="1">
          <mxGeometry x="38" y="404" width="40" height="40" as="geometry" />
        </mxCell>
        <mxCell id="y_hJPUTwGHVDO47t9u5H-27" value="" style="sketch=0;outlineConnect=0;fontColor=#232F3E;gradientColor=none;fillColor=#f5ab50;strokeColor=none;dashed=0;verticalLabelPosition=bottom;verticalAlign=top;align=center;html=1;fontSize=12;fontStyle=0;aspect=fixed;pointerEvents=1;shape=mxgraph.aws4.disk;" parent="eYxBuY7Py7PClH6O-nrH-7" vertex="1">
          <mxGeometry x="38" y="452" width="40" height="40" as="geometry" />
        </mxCell>
        <mxCell id="fPEKX6Ttl3wAnktyUxPx-42" value="" style="endArrow=none;html=1;rounded=0;labelBackgroundColor=default;hachureGap=4;strokeColor=#f5ab50;align=center;verticalAlign=middle;fontFamily=Architects Daughter;fontSource=https%3A%2F%2Ffonts.googleapis.com%2Fcss%3Ffamily%3DArchitects%2BDaughter;fontSize=16;fontColor=default;shape=connector;fillColor=#dae8fc;sketch=1;curveFitting=1;jiggle=2;" parent="eYxBuY7Py7PClH6O-nrH-7" edge="1">
          <mxGeometry width="50" height="50" relative="1" as="geometry">
            <mxPoint x="78" y="423.66" as="sourcePoint" />
            <mxPoint x="114" y="423.66" as="targetPoint" />
          </mxGeometry>
        </mxCell>
        <mxCell id="y_hJPUTwGHVDO47t9u5H-28" value="" style="endArrow=none;html=1;rounded=0;labelBackgroundColor=default;hachureGap=4;strokeColor=#f5ab50;align=center;verticalAlign=middle;fontFamily=Architects Daughter;fontSource=https%3A%2F%2Ffonts.googleapis.com%2Fcss%3Ffamily%3DArchitects%2BDaughter;fontSize=16;fontColor=default;shape=connector;fillColor=#dae8fc;sketch=1;curveFitting=1;jiggle=2;" parent="eYxBuY7Py7PClH6O-nrH-7" edge="1">
          <mxGeometry width="50" height="50" relative="1" as="geometry">
            <mxPoint x="78" y="471.65999999999997" as="sourcePoint" />
            <mxPoint x="114" y="471.65999999999997" as="targetPoint" />
          </mxGeometry>
        </mxCell>
        <mxCell id="y_hJPUTwGHVDO47t9u5H-29" value="" style="endArrow=none;html=1;rounded=0;labelBackgroundColor=default;hachureGap=4;strokeColor=#f5ab50;align=center;verticalAlign=middle;fontFamily=Architects Daughter;fontSource=https%3A%2F%2Ffonts.googleapis.com%2Fcss%3Ffamily%3DArchitects%2BDaughter;fontSize=16;fontColor=default;shape=connector;fillColor=#dae8fc;sketch=1;curveFitting=1;jiggle=2;" parent="eYxBuY7Py7PClH6O-nrH-7" edge="1">
          <mxGeometry width="50" height="50" relative="1" as="geometry">
            <mxPoint x="114" y="472" as="sourcePoint" />
            <mxPoint x="114" y="424" as="targetPoint" />
          </mxGeometry>
        </mxCell>
        <mxCell id="y_hJPUTwGHVDO47t9u5H-30" value="" style="endArrow=none;html=1;rounded=0;labelBackgroundColor=default;hachureGap=4;strokeColor=#f5ab50;align=center;verticalAlign=middle;fontFamily=Architects Daughter;fontSource=https%3A%2F%2Ffonts.googleapis.com%2Fcss%3Ffamily%3DArchitects%2BDaughter;fontSize=16;fontColor=default;shape=connector;fillColor=#dae8fc;sketch=1;curveFitting=1;jiggle=2;" parent="eYxBuY7Py7PClH6O-nrH-7" edge="1">
          <mxGeometry width="50" height="50" relative="1" as="geometry">
            <mxPoint x="114" y="448" as="sourcePoint" />
            <mxPoint x="162" y="448" as="targetPoint" />
          </mxGeometry>
        </mxCell>
        <mxCell id="y_hJPUTwGHVDO47t9u5H-32" value="" style="sketch=0;points=[[0,0,0],[0.25,0,0],[0.5,0,0],[0.75,0,0],[1,0,0],[0,1,0],[0.25,1,0],[0.5,1,0],[0.75,1,0],[1,1,0],[0,0.25,0],[0,0.5,0],[0,0.75,0],[1,0.25,0],[1,0.5,0],[1,0.75,0]];outlineConnect=0;fontColor=#232F3E;fillColor=none;strokeColor=#000000;dashed=0;verticalLabelPosition=bottom;verticalAlign=top;align=center;html=1;fontSize=12;fontStyle=0;aspect=fixed;shape=mxgraph.aws4.resourceIcon;resIcon=mxgraph.aws4.cloudendure_migration;" parent="eYxBuY7Py7PClH6O-nrH-7" vertex="1">
          <mxGeometry x="180" y="444" width="64" height="64" as="geometry" />
        </mxCell>
        <mxCell id="y_hJPUTwGHVDO47t9u5H-33" value="&lt;font data-font-src=&quot;https://fonts.googleapis.com/css?family=Architects+Daughter&quot; face=&quot;Architects Daughter&quot;&gt;Backend Server&lt;/font&gt;" style="text;html=1;align=center;verticalAlign=middle;resizable=0;points=[];autosize=1;strokeColor=none;fillColor=none;" parent="eYxBuY7Py7PClH6O-nrH-7" vertex="1">
          <mxGeometry x="126" y="368" width="116" height="28" as="geometry" />
        </mxCell>
        <mxCell id="y_hJPUTwGHVDO47t9u5H-34" value="&lt;font data-font-src=&quot;https://fonts.googleapis.com/css?family=Architects+Daughter&quot; face=&quot;Architects Daughter&quot;&gt;AWS&lt;br&gt;Replication&lt;br&gt;Agent&lt;/font&gt;" style="text;html=1;align=center;verticalAlign=middle;resizable=0;points=[];autosize=1;strokeColor=none;fillColor=none;" parent="eYxBuY7Py7PClH6O-nrH-7" vertex="1">
          <mxGeometry x="172" y="492" width="80" height="60" as="geometry" />
        </mxCell>
        <mxCell id="UuHaYNKzipl4Wir7eI8Y-9" value="" style="image;sketch=0;aspect=fixed;html=1;points=[];align=center;fontSize=12;image=img/lib/mscae/DNS.svg;" parent="eYxBuY7Py7PClH6O-nrH-7" vertex="1">
          <mxGeometry x="58" y="516" width="40" height="40" as="geometry" />
        </mxCell>
        <mxCell id="UuHaYNKzipl4Wir7eI8Y-10" value="&lt;p style=&quot;line-height: 100%;&quot;&gt;&lt;font data-font-src=&quot;https://fonts.googleapis.com/css?family=Architects+Daughter&quot; face=&quot;Architects Daughter&quot; style=&quot;font-size: 10px;&quot;&gt;DNS&lt;br&gt;Resolver&lt;/font&gt;&lt;br&gt;&lt;/p&gt;" style="text;html=1;align=center;verticalAlign=middle;resizable=0;points=[];autosize=1;strokeColor=none;fillColor=none;" parent="eYxBuY7Py7PClH6O-nrH-7" vertex="1">
          <mxGeometry x="46" y="540" width="64" height="64" as="geometry" />
        </mxCell>
        <mxCell id="eYxBuY7Py7PClH6O-nrH-38" value="&lt;font style=&quot;font-size: 35px;&quot;&gt;MGN - Migration Phase&lt;br&gt;&amp;nbsp;(Rehost)&lt;/font&gt;" style="text;html=1;align=center;verticalAlign=middle;resizable=0;points=[];autosize=1;strokeColor=none;fillColor=none;fontSize=20;fontFamily=Architects Daughter;fontColor=#1A1A1A;rounded=0;" parent="1" vertex="1">
          <mxGeometry x="-216" y="-818" width="392" height="100" as="geometry" />
        </mxCell>
        <mxCell id="y_hJPUTwGHVDO47t9u5H-1" value="Region" style="points=[[0,0],[0.25,0],[0.5,0],[0.75,0],[1,0],[1,0.25],[1,0.5],[1,0.75],[1,1],[0.75,1],[0.5,1],[0.25,1],[0,1],[0,0.75],[0,0.5],[0,0.25]];outlineConnect=0;gradientColor=none;html=1;whiteSpace=wrap;fontSize=12;fontStyle=0;container=1;pointerEvents=0;collapsible=0;recursiveResize=0;shape=mxgraph.aws4.group;grIcon=mxgraph.aws4.group_region;strokeColor=#147EBA;fillColor=none;verticalAlign=top;align=left;spacingLeft=30;fontColor=#147EBA;dashed=1;hachureGap=4;fontFamily=Architects Daughter;fontSource=https%3A%2F%2Ffonts.googleapis.com%2Fcss%3Ffamily%3DArchitects%2BDaughter;rounded=0;" parent="1" vertex="1">
          <mxGeometry x="-102" y="-672" width="982" height="612" as="geometry" />
        </mxCell>
        <mxCell id="fPEKX6Ttl3wAnktyUxPx-41" value="" style="endArrow=classic;html=1;rounded=0;labelBackgroundColor=default;hachureGap=4;strokeColor=#f7c383;align=center;verticalAlign=middle;fontFamily=Architects Daughter;fontSource=https%3A%2F%2Ffonts.googleapis.com%2Fcss%3Ffamily%3DArchitects%2BDaughter;fontSize=16;fontColor=default;shape=connector;fillColor=#dae8fc;strokeWidth=2;sketch=1;curveFitting=1;jiggle=2;entryX=0.067;entryY=0.6;entryDx=0;entryDy=0;entryPerimeter=0;" parent="1" edge="1">
          <mxGeometry width="50" height="50" relative="1" as="geometry">
            <mxPoint x="-152" y="-364" as="sourcePoint" />
            <mxPoint x="-48.00799999999981" y="-364" as="targetPoint" />
          </mxGeometry>
        </mxCell>
        <mxCell id="y_hJPUTwGHVDO47t9u5H-20" value="AWS Cloud" style="points=[[0,0],[0.25,0],[0.5,0],[0.75,0],[1,0],[1,0.25],[1,0.5],[1,0.75],[1,1],[0.75,1],[0.5,1],[0.25,1],[0,1],[0,0.75],[0,0.5],[0,0.25]];outlineConnect=0;gradientColor=none;html=1;whiteSpace=wrap;fontSize=12;fontStyle=0;container=1;pointerEvents=0;collapsible=0;recursiveResize=0;shape=mxgraph.aws4.group;grIcon=mxgraph.aws4.group_aws_cloud_alt;strokeColor=#232F3E;fillColor=none;verticalAlign=top;align=left;spacingLeft=30;fontColor=#232F3E;dashed=0;" parent="1" vertex="1">
          <mxGeometry x="-108" y="-704" width="1016" height="672" as="geometry" />
        </mxCell>
        <mxCell id="y_hJPUTwGHVDO47t9u5H-80" value="" style="whiteSpace=wrap;html=1;shape=mxgraph.basic.document;fillColor=none;strokeColor=#9673a6;strokeWidth=3;" parent="y_hJPUTwGHVDO47t9u5H-20" vertex="1">
          <mxGeometry x="258" y="236" width="32" height="40" as="geometry" />
        </mxCell>
        <mxCell id="y_hJPUTwGHVDO47t9u5H-2" value="&lt;font color=&quot;#000000&quot;&gt;Staging Area Subnet&lt;/font&gt;" style="points=[[0,0],[0.25,0],[0.5,0],[0.75,0],[1,0],[1,0.25],[1,0.5],[1,0.75],[1,1],[0.75,1],[0.5,1],[0.25,1],[0,1],[0,0.75],[0,0.5],[0,0.25]];outlineConnect=0;gradientColor=none;html=1;whiteSpace=wrap;fontSize=12;fontStyle=0;container=1;pointerEvents=0;collapsible=0;recursiveResize=0;shape=mxgraph.aws4.group;grIcon=mxgraph.aws4.group_vpc;strokeColor=#248814;fillColor=none;verticalAlign=top;align=left;spacingLeft=30;fontColor=#AAB7B8;dashed=0;hachureGap=4;fontFamily=Architects Daughter;fontSource=https%3A%2F%2Ffonts.googleapis.com%2Fcss%3Ffamily%3DArchitects%2BDaughter;rounded=0;" parent="y_hJPUTwGHVDO47t9u5H-20" vertex="1">
          <mxGeometry x="22" y="288" width="374" height="302" as="geometry" />
        </mxCell>
        <mxCell id="y_hJPUTwGHVDO47t9u5H-45" value="" style="sketch=0;outlineConnect=0;fontColor=#232F3E;gradientColor=none;fillColor=#ED7100;strokeColor=none;dashed=0;verticalLabelPosition=bottom;verticalAlign=top;align=center;html=1;fontSize=12;fontStyle=0;aspect=fixed;pointerEvents=1;shape=mxgraph.aws4.instances;" parent="y_hJPUTwGHVDO47t9u5H-2" vertex="1">
          <mxGeometry x="54" y="92" width="92" height="92" as="geometry" />
        </mxCell>
        <mxCell id="y_hJPUTwGHVDO47t9u5H-46" value="&lt;font data-font-src=&quot;https://fonts.googleapis.com/css?family=Architects+Daughter&quot; face=&quot;Architects Daughter&quot;&gt;Replication &lt;br&gt;Servers&lt;/font&gt;" style="text;html=1;align=center;verticalAlign=middle;resizable=0;points=[];autosize=1;strokeColor=none;fillColor=none;" parent="y_hJPUTwGHVDO47t9u5H-2" vertex="1">
          <mxGeometry x="60" y="196" width="80" height="44" as="geometry" />
        </mxCell>
        <mxCell id="y_hJPUTwGHVDO47t9u5H-47" value="" style="endArrow=none;html=1;rounded=0;labelBackgroundColor=default;hachureGap=4;strokeColor=#f5ab50;align=center;verticalAlign=middle;fontFamily=Architects Daughter;fontSource=https%3A%2F%2Ffonts.googleapis.com%2Fcss%3Ffamily%3DArchitects%2BDaughter;fontSize=16;fontColor=default;shape=connector;fillColor=#dae8fc;sketch=1;curveFitting=1;jiggle=2;" parent="y_hJPUTwGHVDO47t9u5H-2" edge="1">
          <mxGeometry width="50" height="50" relative="1" as="geometry">
            <mxPoint x="146" y="160" as="sourcePoint" />
            <mxPoint x="214" y="160" as="targetPoint" />
          </mxGeometry>
        </mxCell>
        <mxCell id="y_hJPUTwGHVDO47t9u5H-48" value="" style="endArrow=none;html=1;rounded=0;labelBackgroundColor=default;hachureGap=4;strokeColor=#f5ab50;align=center;verticalAlign=middle;fontFamily=Architects Daughter;fontSource=https%3A%2F%2Ffonts.googleapis.com%2Fcss%3Ffamily%3DArchitects%2BDaughter;fontSize=16;fontColor=default;shape=connector;fillColor=#dae8fc;sketch=1;curveFitting=1;jiggle=2;" parent="y_hJPUTwGHVDO47t9u5H-2" edge="1">
          <mxGeometry width="50" height="50" relative="1" as="geometry">
            <mxPoint x="214" y="112" as="sourcePoint" />
            <mxPoint x="282" y="112" as="targetPoint" />
          </mxGeometry>
        </mxCell>
        <mxCell id="y_hJPUTwGHVDO47t9u5H-49" value="" style="endArrow=none;html=1;rounded=0;labelBackgroundColor=default;hachureGap=4;strokeColor=#f5ab50;align=center;verticalAlign=middle;fontFamily=Architects Daughter;fontSource=https%3A%2F%2Ffonts.googleapis.com%2Fcss%3Ffamily%3DArchitects%2BDaughter;fontSize=16;fontColor=default;shape=connector;fillColor=#dae8fc;sketch=1;curveFitting=1;jiggle=2;" parent="y_hJPUTwGHVDO47t9u5H-2" edge="1">
          <mxGeometry width="50" height="50" relative="1" as="geometry">
            <mxPoint x="214" y="208" as="sourcePoint" />
            <mxPoint x="282" y="208" as="targetPoint" />
          </mxGeometry>
        </mxCell>
        <mxCell id="y_hJPUTwGHVDO47t9u5H-51" value="" style="sketch=0;outlineConnect=0;fontColor=#232F3E;gradientColor=none;fillColor=#7AA116;strokeColor=none;dashed=0;verticalLabelPosition=bottom;verticalAlign=top;align=center;html=1;fontSize=12;fontStyle=0;aspect=fixed;pointerEvents=1;shape=mxgraph.aws4.volume;" parent="y_hJPUTwGHVDO47t9u5H-2" vertex="1">
          <mxGeometry x="282" y="76" width="47.69" height="60" as="geometry" />
        </mxCell>
        <mxCell id="y_hJPUTwGHVDO47t9u5H-53" value="" style="sketch=0;outlineConnect=0;fontColor=#232F3E;gradientColor=none;fillColor=#7AA116;strokeColor=none;dashed=0;verticalLabelPosition=bottom;verticalAlign=top;align=center;html=1;fontSize=12;fontStyle=0;aspect=fixed;pointerEvents=1;shape=mxgraph.aws4.volume;" parent="y_hJPUTwGHVDO47t9u5H-2" vertex="1">
          <mxGeometry x="282" y="176" width="47.69" height="60" as="geometry" />
        </mxCell>
        <mxCell id="y_hJPUTwGHVDO47t9u5H-54" value="" style="endArrow=none;html=1;rounded=0;labelBackgroundColor=default;hachureGap=4;strokeColor=#f5ab50;align=center;verticalAlign=middle;fontFamily=Architects Daughter;fontSource=https%3A%2F%2Ffonts.googleapis.com%2Fcss%3Ffamily%3DArchitects%2BDaughter;fontSize=16;fontColor=default;shape=connector;fillColor=#dae8fc;sketch=1;curveFitting=1;jiggle=2;" parent="y_hJPUTwGHVDO47t9u5H-2" edge="1">
          <mxGeometry width="50" height="50" relative="1" as="geometry">
            <mxPoint x="214" y="160" as="sourcePoint" />
            <mxPoint x="214" y="112" as="targetPoint" />
          </mxGeometry>
        </mxCell>
        <mxCell id="y_hJPUTwGHVDO47t9u5H-55" value="" style="endArrow=none;html=1;rounded=0;labelBackgroundColor=default;hachureGap=4;strokeColor=#f5ab50;align=center;verticalAlign=middle;fontFamily=Architects Daughter;fontSource=https%3A%2F%2Ffonts.googleapis.com%2Fcss%3Ffamily%3DArchitects%2BDaughter;fontSize=16;fontColor=default;shape=connector;fillColor=#dae8fc;sketch=1;curveFitting=1;jiggle=2;" parent="y_hJPUTwGHVDO47t9u5H-2" edge="1">
          <mxGeometry width="50" height="50" relative="1" as="geometry">
            <mxPoint x="214" y="208" as="sourcePoint" />
            <mxPoint x="214" y="160" as="targetPoint" />
          </mxGeometry>
        </mxCell>
        <mxCell id="UuHaYNKzipl4Wir7eI8Y-7" value="" style="sketch=0;outlineConnect=0;fontColor=#232F3E;gradientColor=none;fillColor=#8C4FFF;strokeColor=none;dashed=0;verticalLabelPosition=bottom;verticalAlign=top;align=center;html=1;fontSize=12;fontStyle=0;aspect=fixed;pointerEvents=1;shape=mxgraph.aws4.endpoint;" parent="y_hJPUTwGHVDO47t9u5H-2" vertex="1">
          <mxGeometry x="10" y="228" width="36" height="36" as="geometry" />
        </mxCell>
        <mxCell id="UuHaYNKzipl4Wir7eI8Y-8" value="&lt;p style=&quot;line-height: 90%;&quot;&gt;&lt;font style=&quot;font-size: 10px;&quot; data-font-src=&quot;https://fonts.googleapis.com/css?family=Architects+Daughter&quot; face=&quot;Architects Daughter&quot;&gt;&lt;font style=&quot;font-size: 10px;&quot; data-font-src=&quot;https://fonts.googleapis.com/css?family=Architects+Daughter&quot;&gt;Route53&lt;br&gt;Inbound&lt;br&gt;Endpoin&lt;/font&gt;t&lt;/font&gt;&lt;/p&gt;" style="text;html=1;align=center;verticalAlign=middle;resizable=0;points=[];autosize=1;strokeColor=none;fillColor=none;" parent="y_hJPUTwGHVDO47t9u5H-2" vertex="1">
          <mxGeometry x="-2" y="244" width="60" height="72" as="geometry" />
        </mxCell>
        <mxCell id="y_hJPUTwGHVDO47t9u5H-25" value="&lt;font style=&quot;font-size: 16px;&quot; color=&quot;#000000&quot; face=&quot;Architects Daughter&quot;&gt;AWS Regional Service API Endpoint Access&lt;/font&gt;" style="fillColor=none;strokeColor=#5A6C86;dashed=1;verticalAlign=top;fontStyle=0;fontColor=#5A6C86;whiteSpace=wrap;html=1;" parent="y_hJPUTwGHVDO47t9u5H-20" vertex="1">
          <mxGeometry x="24" y="64" width="928" height="160" as="geometry" />
        </mxCell>
        <mxCell id="y_hJPUTwGHVDO47t9u5H-36" value="" style="sketch=0;points=[[0,0,0],[0.25,0,0],[0.5,0,0],[0.75,0,0],[1,0,0],[0,1,0],[0.25,1,0],[0.5,1,0],[0.75,1,0],[1,1,0],[0,0.25,0],[0,0.5,0],[0,0.75,0],[1,0.25,0],[1,0.5,0],[1,0.75,0]];outlineConnect=0;fontColor=#232F3E;fillColor=#01A88D;strokeColor=#ffffff;dashed=0;verticalLabelPosition=bottom;verticalAlign=top;align=center;html=1;fontSize=12;fontStyle=0;aspect=fixed;shape=mxgraph.aws4.resourceIcon;resIcon=mxgraph.aws4.cloudendure_migration;" parent="y_hJPUTwGHVDO47t9u5H-20" vertex="1">
          <mxGeometry x="80" y="116" width="64" height="64" as="geometry" />
        </mxCell>
        <mxCell id="y_hJPUTwGHVDO47t9u5H-37" value="" style="sketch=0;points=[[0,0,0],[0.25,0,0],[0.5,0,0],[0.75,0,0],[1,0,0],[0,1,0],[0.25,1,0],[0.5,1,0],[0.75,1,0],[1,1,0],[0,0.25,0],[0,0.5,0],[0,0.75,0],[1,0.25,0],[1,0.5,0],[1,0.75,0]];outlineConnect=0;fontColor=#232F3E;fillColor=#ED7100;strokeColor=#ffffff;dashed=0;verticalLabelPosition=bottom;verticalAlign=top;align=center;html=1;fontSize=12;fontStyle=0;aspect=fixed;shape=mxgraph.aws4.resourceIcon;resIcon=mxgraph.aws4.ec2;" parent="y_hJPUTwGHVDO47t9u5H-20" vertex="1">
          <mxGeometry x="280" y="116" width="64" height="64" as="geometry" />
        </mxCell>
        <mxCell id="y_hJPUTwGHVDO47t9u5H-38" value="" style="sketch=0;points=[[0,0,0],[0.25,0,0],[0.5,0,0],[0.75,0,0],[1,0,0],[0,1,0],[0.25,1,0],[0.5,1,0],[0.75,1,0],[1,1,0],[0,0.25,0],[0,0.5,0],[0,0.75,0],[1,0.25,0],[1,0.5,0],[1,0.75,0]];outlineConnect=0;fontColor=#232F3E;fillColor=#7AA116;strokeColor=#ffffff;dashed=0;verticalLabelPosition=bottom;verticalAlign=top;align=center;html=1;fontSize=12;fontStyle=0;aspect=fixed;shape=mxgraph.aws4.resourceIcon;resIcon=mxgraph.aws4.s3;" parent="y_hJPUTwGHVDO47t9u5H-20" vertex="1">
          <mxGeometry x="484" y="116" width="63" height="63" as="geometry" />
        </mxCell>
        <mxCell id="y_hJPUTwGHVDO47t9u5H-39" value="" style="sketch=0;points=[[0,0,0],[0.25,0,0],[0.5,0,0],[0.75,0,0],[1,0,0],[0,1,0],[0.25,1,0],[0.5,1,0],[0.75,1,0],[1,1,0],[0,0.25,0],[0,0.5,0],[0,0.75,0],[1,0.25,0],[1,0.5,0],[1,0.75,0]];points=[[0,0,0],[0.25,0,0],[0.5,0,0],[0.75,0,0],[1,0,0],[0,1,0],[0.25,1,0],[0.5,1,0],[0.75,1,0],[1,1,0],[0,0.25,0],[0,0.5,0],[0,0.75,0],[1,0.25,0],[1,0.5,0],[1,0.75,0]];outlineConnect=0;fontColor=#232F3E;fillColor=#E7157B;strokeColor=#ffffff;dashed=0;verticalLabelPosition=bottom;verticalAlign=top;align=center;html=1;fontSize=12;fontStyle=0;aspect=fixed;shape=mxgraph.aws4.resourceIcon;resIcon=mxgraph.aws4.systems_manager;" parent="y_hJPUTwGHVDO47t9u5H-20" vertex="1">
          <mxGeometry x="700" y="116" width="63" height="63" as="geometry" />
        </mxCell>
        <mxCell id="y_hJPUTwGHVDO47t9u5H-40" value="&lt;font data-font-src=&quot;https://fonts.googleapis.com/css?family=Architects+Daughter&quot; face=&quot;Architects Daughter&quot;&gt;MGN&lt;/font&gt;" style="text;html=1;align=center;verticalAlign=middle;resizable=0;points=[];autosize=1;strokeColor=none;fillColor=none;" parent="y_hJPUTwGHVDO47t9u5H-20" vertex="1">
          <mxGeometry x="88" y="88" width="48" height="28" as="geometry" />
        </mxCell>
        <mxCell id="y_hJPUTwGHVDO47t9u5H-41" value="&lt;font data-font-src=&quot;https://fonts.googleapis.com/css?family=Architects+Daughter&quot; face=&quot;Architects Daughter&quot;&gt;EC2&lt;/font&gt;" style="text;html=1;align=center;verticalAlign=middle;resizable=0;points=[];autosize=1;strokeColor=none;fillColor=none;" parent="y_hJPUTwGHVDO47t9u5H-20" vertex="1">
          <mxGeometry x="290" y="88" width="44" height="28" as="geometry" />
        </mxCell>
        <mxCell id="y_hJPUTwGHVDO47t9u5H-42" value="&lt;font data-font-src=&quot;https://fonts.googleapis.com/css?family=Architects+Daughter&quot; face=&quot;Architects Daughter&quot;&gt;S3&lt;/font&gt;" style="text;html=1;align=center;verticalAlign=middle;resizable=0;points=[];autosize=1;strokeColor=none;fillColor=none;" parent="y_hJPUTwGHVDO47t9u5H-20" vertex="1">
          <mxGeometry x="497.5" y="88" width="36" height="28" as="geometry" />
        </mxCell>
        <mxCell id="y_hJPUTwGHVDO47t9u5H-43" value="&lt;font data-font-src=&quot;https://fonts.googleapis.com/css?family=Architects+Daughter&quot; face=&quot;Architects Daughter&quot;&gt;Systems&lt;br&gt;Manager&lt;br&gt;&lt;/font&gt;" style="text;html=1;align=center;verticalAlign=middle;resizable=0;points=[];autosize=1;strokeColor=none;fillColor=none;" parent="y_hJPUTwGHVDO47t9u5H-20" vertex="1">
          <mxGeometry x="697.5" y="76" width="68" height="44" as="geometry" />
        </mxCell>
        <mxCell id="y_hJPUTwGHVDO47t9u5H-22" value="" style="endArrow=classic;html=1;rounded=0;labelBackgroundColor=default;hachureGap=4;strokeColor=#6c8ebf;align=center;verticalAlign=middle;fontFamily=Architects Daughter;fontSource=https%3A%2F%2Ffonts.googleapis.com%2Fcss%3Ffamily%3DArchitects%2BDaughter;fontSize=16;fontColor=default;shape=connector;fillColor=#dae8fc;strokeWidth=2;sketch=1;curveFitting=1;jiggle=2;exitX=1.073;exitY=0.6;exitDx=0;exitDy=0;exitPerimeter=0;" parent="y_hJPUTwGHVDO47t9u5H-20" source="y_hJPUTwGHVDO47t9u5H-77" edge="1">
          <mxGeometry width="50" height="50" relative="1" as="geometry">
            <mxPoint x="-60" y="448" as="sourcePoint" />
            <mxPoint x="64" y="448" as="targetPoint" />
          </mxGeometry>
        </mxCell>
        <mxCell id="y_hJPUTwGHVDO47t9u5H-81" value="" style="endArrow=none;html=1;rounded=0;labelBackgroundColor=default;hachureGap=4;strokeColor=#9673a6;align=center;verticalAlign=middle;fontFamily=Architects Daughter;fontSource=https%3A%2F%2Ffonts.googleapis.com%2Fcss%3Ffamily%3DArchitects%2BDaughter;fontSize=16;fontColor=default;shape=connector;fillColor=#e1d5e7;sketch=1;curveFitting=1;jiggle=2;" parent="y_hJPUTwGHVDO47t9u5H-20" edge="1">
          <mxGeometry width="50" height="50" relative="1" as="geometry">
            <mxPoint x="108" y="204" as="sourcePoint" />
            <mxPoint x="524" y="204" as="targetPoint" />
          </mxGeometry>
        </mxCell>
        <mxCell id="y_hJPUTwGHVDO47t9u5H-82" value="" style="endArrow=classic;html=1;rounded=0;labelBackgroundColor=default;hachureGap=4;strokeColor=#9673a6;align=center;verticalAlign=middle;fontFamily=Architects Daughter;fontSource=https%3A%2F%2Ffonts.googleapis.com%2Fcss%3Ffamily%3DArchitects%2BDaughter;fontSize=16;fontColor=default;shape=connector;fillColor=#e1d5e7;strokeWidth=2;sketch=1;curveFitting=1;jiggle=2;" parent="y_hJPUTwGHVDO47t9u5H-20" edge="1">
          <mxGeometry width="50" height="50" relative="1" as="geometry">
            <mxPoint x="108" y="204" as="sourcePoint" />
            <mxPoint x="108" y="180" as="targetPoint" />
          </mxGeometry>
        </mxCell>
        <mxCell id="y_hJPUTwGHVDO47t9u5H-83" value="" style="endArrow=classic;html=1;rounded=0;labelBackgroundColor=default;hachureGap=4;strokeColor=#9673a6;align=center;verticalAlign=middle;fontFamily=Architects Daughter;fontSource=https%3A%2F%2Ffonts.googleapis.com%2Fcss%3Ffamily%3DArchitects%2BDaughter;fontSize=16;fontColor=default;shape=connector;fillColor=#e1d5e7;strokeWidth=2;sketch=1;curveFitting=1;jiggle=2;" parent="y_hJPUTwGHVDO47t9u5H-20" edge="1">
          <mxGeometry width="50" height="50" relative="1" as="geometry">
            <mxPoint x="524" y="204" as="sourcePoint" />
            <mxPoint x="524" y="180" as="targetPoint" />
          </mxGeometry>
        </mxCell>
        <mxCell id="y_hJPUTwGHVDO47t9u5H-85" value="" style="endArrow=classic;html=1;rounded=0;labelBackgroundColor=default;hachureGap=4;strokeColor=#666666;align=center;verticalAlign=middle;fontFamily=Architects Daughter;fontSource=https%3A%2F%2Ffonts.googleapis.com%2Fcss%3Ffamily%3DArchitects%2BDaughter;fontSize=16;fontColor=default;shape=connector;fillColor=#f5f5f5;strokeWidth=2;sketch=1;curveFitting=1;jiggle=2;" parent="y_hJPUTwGHVDO47t9u5H-20" edge="1">
          <mxGeometry width="50" height="50" relative="1" as="geometry">
            <mxPoint x="732" y="288" as="sourcePoint" />
            <mxPoint x="732" y="184" as="targetPoint" />
          </mxGeometry>
        </mxCell>
        <mxCell id="y_hJPUTwGHVDO47t9u5H-86" value="&lt;font data-font-src=&quot;https://fonts.googleapis.com/css?family=Architects+Daughter&quot; face=&quot;Architects Daughter&quot;&gt;&lt;b&gt;HTTP&lt;/b&gt;&lt;/font&gt;" style="text;html=1;align=center;verticalAlign=middle;resizable=0;points=[];autosize=1;strokeColor=none;fillColor=none;" parent="y_hJPUTwGHVDO47t9u5H-20" vertex="1">
          <mxGeometry x="672" y="228" width="52" height="28" as="geometry" />
        </mxCell>
        <mxCell id="y_hJPUTwGHVDO47t9u5H-87" value="" style="endArrow=classic;html=1;rounded=0;labelBackgroundColor=default;hachureGap=4;strokeColor=#9673a6;align=center;verticalAlign=middle;fontFamily=Architects Daughter;fontSource=https%3A%2F%2Ffonts.googleapis.com%2Fcss%3Ffamily%3DArchitects%2BDaughter;fontSize=16;fontColor=default;shape=connector;fillColor=#e1d5e7;strokeWidth=2;sketch=1;curveFitting=1;jiggle=2;" parent="y_hJPUTwGHVDO47t9u5H-20" edge="1">
          <mxGeometry width="50" height="50" relative="1" as="geometry">
            <mxPoint x="312" y="256" as="sourcePoint" />
            <mxPoint x="311.58000000000004" y="180" as="targetPoint" />
          </mxGeometry>
        </mxCell>
        <mxCell id="y_hJPUTwGHVDO47t9u5H-90" value="" style="endArrow=none;html=1;rounded=0;labelBackgroundColor=default;hachureGap=4;strokeColor=#9673a6;align=center;verticalAlign=middle;fontFamily=Architects Daughter;fontSource=https%3A%2F%2Ffonts.googleapis.com%2Fcss%3Ffamily%3DArchitects%2BDaughter;fontSize=16;fontColor=default;shape=connector;fillColor=#e1d5e7;sketch=1;curveFitting=1;jiggle=2;" parent="y_hJPUTwGHVDO47t9u5H-20" edge="1">
          <mxGeometry width="50" height="50" relative="1" as="geometry">
            <mxPoint x="204" y="256" as="sourcePoint" />
            <mxPoint x="256" y="256" as="targetPoint" />
          </mxGeometry>
        </mxCell>
        <mxCell id="y_hJPUTwGHVDO47t9u5H-79" value="" style="sketch=0;aspect=fixed;pointerEvents=1;shadow=0;dashed=0;html=1;strokeColor=#9673a6;labelPosition=center;verticalLabelPosition=bottom;verticalAlign=top;align=center;fillColor=#e1d5e7;shape=mxgraph.mscae.enterprise.lock;strokeWidth=2;" parent="y_hJPUTwGHVDO47t9u5H-20" vertex="1">
          <mxGeometry x="265.62" y="245.25" width="16.77" height="21.5" as="geometry" />
        </mxCell>
        <mxCell id="y_hJPUTwGHVDO47t9u5H-91" value="" style="endArrow=none;html=1;rounded=0;labelBackgroundColor=default;hachureGap=4;strokeColor=#9673a6;align=center;verticalAlign=middle;fontFamily=Architects Daughter;fontSource=https%3A%2F%2Ffonts.googleapis.com%2Fcss%3Ffamily%3DArchitects%2BDaughter;fontSize=16;fontColor=default;shape=connector;fillColor=#e1d5e7;sketch=1;curveFitting=1;jiggle=2;" parent="y_hJPUTwGHVDO47t9u5H-20" edge="1">
          <mxGeometry width="50" height="50" relative="1" as="geometry">
            <mxPoint x="292" y="256" as="sourcePoint" />
            <mxPoint x="312" y="256" as="targetPoint" />
          </mxGeometry>
        </mxCell>
        <mxCell id="y_hJPUTwGHVDO47t9u5H-92" value="" style="endArrow=none;html=1;rounded=0;labelBackgroundColor=default;hachureGap=4;strokeColor=#9673a6;align=center;verticalAlign=middle;fontFamily=Architects Daughter;fontSource=https%3A%2F%2Ffonts.googleapis.com%2Fcss%3Ffamily%3DArchitects%2BDaughter;fontSize=16;fontColor=default;shape=connector;fillColor=#e1d5e7;sketch=1;curveFitting=1;jiggle=2;" parent="y_hJPUTwGHVDO47t9u5H-20" source="y_hJPUTwGHVDO47t9u5H-2" edge="1">
          <mxGeometry width="50" height="50" relative="1" as="geometry">
            <mxPoint x="204" y="284" as="sourcePoint" />
            <mxPoint x="204" y="256" as="targetPoint" />
          </mxGeometry>
        </mxCell>
        <mxCell id="y_hJPUTwGHVDO47t9u5H-93" value="&lt;font data-font-src=&quot;https://fonts.googleapis.com/css?family=Architects+Daughter&quot; face=&quot;Architects Daughter&quot;&gt;&lt;b&gt;TCP 443&lt;/b&gt;&lt;/font&gt;" style="text;html=1;align=center;verticalAlign=middle;resizable=0;points=[];autosize=1;strokeColor=none;fillColor=none;" parent="y_hJPUTwGHVDO47t9u5H-20" vertex="1">
          <mxGeometry x="186" y="224" width="72" height="28" as="geometry" />
        </mxCell>
        <mxCell id="iDECFh6Ok3Ae--SAyqNm-1" value="Private subnet" style="points=[[0,0],[0.25,0],[0.5,0],[0.75,0],[1,0],[1,0.25],[1,0.5],[1,0.75],[1,1],[0.75,1],[0.5,1],[0.25,1],[0,1],[0,0.75],[0,0.5],[0,0.25]];outlineConnect=0;gradientColor=none;html=1;whiteSpace=wrap;fontSize=12;fontStyle=0;container=1;pointerEvents=0;collapsible=0;recursiveResize=0;shape=mxgraph.aws4.group;grIcon=mxgraph.aws4.group_security_group;grStroke=0;strokeColor=#147EBA;fillColor=#E6F2F8;verticalAlign=top;align=left;spacingLeft=30;fontColor=#147EBA;dashed=0;" parent="y_hJPUTwGHVDO47t9u5H-20" vertex="1">
          <mxGeometry x="776" y="336" width="122" height="84" as="geometry" />
        </mxCell>
        <mxCell id="iDECFh6Ok3Ae--SAyqNm-2" value="Private subnet" style="points=[[0,0],[0.25,0],[0.5,0],[0.75,0],[1,0],[1,0.25],[1,0.5],[1,0.75],[1,1],[0.75,1],[0.5,1],[0.25,1],[0,1],[0,0.75],[0,0.5],[0,0.25]];outlineConnect=0;gradientColor=none;html=1;whiteSpace=wrap;fontSize=12;fontStyle=0;container=1;pointerEvents=0;collapsible=0;recursiveResize=0;shape=mxgraph.aws4.group;grIcon=mxgraph.aws4.group_security_group;grStroke=0;strokeColor=#147EBA;fillColor=#E6F2F8;verticalAlign=top;align=left;spacingLeft=30;fontColor=#147EBA;dashed=0;" parent="y_hJPUTwGHVDO47t9u5H-20" vertex="1">
          <mxGeometry x="776" y="428" width="122" height="93" as="geometry" />
        </mxCell>
        <mxCell id="iDECFh6Ok3Ae--SAyqNm-3" value="AZ 1" style="fillColor=none;strokeColor=#147EBA;dashed=1;verticalAlign=top;fontStyle=0;fontColor=#147EBA;whiteSpace=wrap;html=1;" parent="y_hJPUTwGHVDO47t9u5H-20" vertex="1">
          <mxGeometry x="560" y="288" width="136" height="244" as="geometry" />
        </mxCell>
        <mxCell id="iDECFh6Ok3Ae--SAyqNm-4" value="Private subnet" style="points=[[0,0],[0.25,0],[0.5,0],[0.75,0],[1,0],[1,0.25],[1,0.5],[1,0.75],[1,1],[0.75,1],[0.5,1],[0.25,1],[0,1],[0,0.75],[0,0.5],[0,0.25]];outlineConnect=0;gradientColor=none;html=1;whiteSpace=wrap;fontSize=12;fontStyle=0;container=1;pointerEvents=0;collapsible=0;recursiveResize=0;shape=mxgraph.aws4.group;grIcon=mxgraph.aws4.group_security_group;grStroke=0;strokeColor=#147EBA;fillColor=#E6F2F8;verticalAlign=top;align=left;spacingLeft=30;fontColor=#147EBA;dashed=0;" parent="y_hJPUTwGHVDO47t9u5H-20" vertex="1">
          <mxGeometry x="564" y="428" width="125" height="93" as="geometry" />
        </mxCell>
        <mxCell id="iDECFh6Ok3Ae--SAyqNm-5" value="" style="sketch=0;outlineConnect=0;fontColor=#232F3E;gradientColor=none;fillColor=#0000CC;strokeColor=none;dashed=0;verticalLabelPosition=bottom;verticalAlign=top;align=center;html=1;fontSize=12;fontStyle=0;aspect=fixed;pointerEvents=1;shape=mxgraph.aws4.aurora_instance;" parent="y_hJPUTwGHVDO47t9u5H-20" vertex="1">
          <mxGeometry x="607.5" y="364" width="38" height="38" as="geometry" />
        </mxCell>
        <mxCell id="iDECFh6Ok3Ae--SAyqNm-6" value="&lt;font data-font-src=&quot;https://fonts.googleapis.com/css?family=Architects+Daughter&quot; face=&quot;Architects Daughter&quot;&gt;Aurora Master&lt;br&gt;&lt;/font&gt;" style="text;html=1;align=center;verticalAlign=middle;resizable=0;points=[];autosize=1;strokeColor=none;fillColor=none;" parent="y_hJPUTwGHVDO47t9u5H-20" vertex="1">
          <mxGeometry x="574" y="393" width="108" height="28" as="geometry" />
        </mxCell>
        <mxCell id="iDECFh6Ok3Ae--SAyqNm-7" value="" style="rounded=1;arcSize=10;dashed=1;fillColor=none;gradientColor=none;dashPattern=8 3 1 3;strokeWidth=2;strokeColor=#e08a4c;" parent="y_hJPUTwGHVDO47t9u5H-20" vertex="1">
          <mxGeometry x="528" y="460" width="416" height="60" as="geometry" />
        </mxCell>
        <mxCell id="iDECFh6Ok3Ae--SAyqNm-8" value="" style="sketch=0;outlineConnect=0;fontColor=#232F3E;gradientColor=none;fillColor=#7AA116;strokeColor=none;dashed=0;verticalLabelPosition=bottom;verticalAlign=top;align=center;html=1;fontSize=12;fontStyle=0;aspect=fixed;pointerEvents=1;shape=mxgraph.aws4.volume;" parent="y_hJPUTwGHVDO47t9u5H-20" vertex="1">
          <mxGeometry x="640" y="468" width="34.97" height="44" as="geometry" />
        </mxCell>
        <mxCell id="iDECFh6Ok3Ae--SAyqNm-9" value="&lt;font data-font-src=&quot;https://fonts.googleapis.com/css?family=Architects+Daughter&quot; face=&quot;Architects Daughter&quot;&gt;EBS&lt;/font&gt;" style="text;html=1;align=center;verticalAlign=middle;resizable=0;points=[];autosize=1;strokeColor=none;fillColor=none;" parent="y_hJPUTwGHVDO47t9u5H-20" vertex="1">
          <mxGeometry x="635.48" y="480" width="44" height="28" as="geometry" />
        </mxCell>
        <mxCell id="iDECFh6Ok3Ae--SAyqNm-10" value="Private subnet" style="points=[[0,0],[0.25,0],[0.5,0],[0.75,0],[1,0],[1,0.25],[1,0.5],[1,0.75],[1,1],[0.75,1],[0.5,1],[0.25,1],[0,1],[0,0.75],[0,0.5],[0,0.25]];outlineConnect=0;gradientColor=none;html=1;whiteSpace=wrap;fontSize=12;fontStyle=0;container=1;pointerEvents=0;collapsible=0;recursiveResize=0;shape=mxgraph.aws4.group;grIcon=mxgraph.aws4.group_security_group;grStroke=0;strokeColor=#147EBA;fillColor=#E6F2F8;verticalAlign=top;align=left;spacingLeft=30;fontColor=#147EBA;dashed=0;" parent="y_hJPUTwGHVDO47t9u5H-20" vertex="1">
          <mxGeometry x="568" y="336" width="122" height="84" as="geometry" />
        </mxCell>
        <mxCell id="iDECFh6Ok3Ae--SAyqNm-11" value="&lt;font style=&quot;font-size: 10px;&quot; data-font-src=&quot;https://fonts.googleapis.com/css?family=Architects+Daughter&quot; face=&quot;Architects Daughter&quot;&gt;EBS Snapshot&amp;nbsp;&lt;br&gt;On ASG Terminate Lifecycle hook&lt;/font&gt;" style="text;html=1;align=center;verticalAlign=middle;resizable=0;points=[];autosize=1;strokeColor=none;fillColor=none;" parent="y_hJPUTwGHVDO47t9u5H-20" vertex="1">
          <mxGeometry x="552" y="568" width="184" height="44" as="geometry" />
        </mxCell>
        <mxCell id="iDECFh6Ok3Ae--SAyqNm-12" value="&lt;font color=&quot;#000000&quot; data-font-src=&quot;https://fonts.googleapis.com/css?family=Architects+Daughter&quot; face=&quot;Architects Daughter&quot;&gt;Migrated Resources&lt;/font&gt;" style="points=[[0,0],[0.25,0],[0.5,0],[0.75,0],[1,0],[1,0.25],[1,0.5],[1,0.75],[1,1],[0.75,1],[0.5,1],[0.25,1],[0,1],[0,0.75],[0,0.5],[0,0.25]];outlineConnect=0;gradientColor=none;html=1;whiteSpace=wrap;fontSize=12;fontStyle=0;container=1;pointerEvents=0;collapsible=0;recursiveResize=0;shape=mxgraph.aws4.group;grIcon=mxgraph.aws4.group_vpc;strokeColor=#248814;fillColor=none;verticalAlign=top;align=left;spacingLeft=30;fontColor=#AAB7B8;dashed=0;" parent="y_hJPUTwGHVDO47t9u5H-20" vertex="1">
          <mxGeometry x="520" y="308" width="444" height="232" as="geometry" />
        </mxCell>
        <mxCell id="iDECFh6Ok3Ae--SAyqNm-13" value="" style="sketch=0;outlineConnect=0;fontColor=#232F3E;gradientColor=none;fillColor=#8C4FFF;strokeColor=none;dashed=0;verticalLabelPosition=bottom;verticalAlign=top;align=center;html=1;fontSize=12;fontStyle=0;aspect=fixed;pointerEvents=1;shape=mxgraph.aws4.application_load_balancer;" parent="iDECFh6Ok3Ae--SAyqNm-12" vertex="1">
          <mxGeometry x="189.25" y="92" width="41.5" height="41.5" as="geometry" />
        </mxCell>
        <mxCell id="iDECFh6Ok3Ae--SAyqNm-14" value="ALB" style="text;html=1;align=center;verticalAlign=middle;resizable=0;points=[];autosize=1;strokeColor=none;fillColor=none;" parent="iDECFh6Ok3Ae--SAyqNm-12" vertex="1">
          <mxGeometry x="188" y="128" width="44" height="28" as="geometry" />
        </mxCell>
        <mxCell id="iDECFh6Ok3Ae--SAyqNm-15" value="" style="sketch=0;points=[[0,0,0],[0.25,0,0],[0.5,0,0],[0.75,0,0],[1,0,0],[0,1,0],[0.25,1,0],[0.5,1,0],[0.75,1,0],[1,1,0],[0,0.25,0],[0,0.5,0],[0,0.75,0],[1,0.25,0],[1,0.5,0],[1,0.75,0]];outlineConnect=0;fontColor=#232F3E;fillColor=#ED7100;strokeColor=#ffffff;dashed=0;verticalLabelPosition=bottom;verticalAlign=top;align=center;html=1;fontSize=12;fontStyle=0;aspect=fixed;shape=mxgraph.aws4.resourceIcon;resIcon=mxgraph.aws4.auto_scaling2;" parent="iDECFh6Ok3Ae--SAyqNm-12" vertex="1">
          <mxGeometry x="12" y="156" width="24" height="24" as="geometry" />
        </mxCell>
        <mxCell id="iDECFh6Ok3Ae--SAyqNm-16" value="&lt;font style=&quot;font-size: 10px;&quot; data-font-src=&quot;https://fonts.googleapis.com/css?family=Architects+Daughter&quot; face=&quot;Architects Daughter&quot;&gt;Asyncronous&lt;/font&gt;" style="text;html=1;align=center;verticalAlign=middle;resizable=0;points=[];autosize=1;strokeColor=none;fillColor=none;" parent="iDECFh6Ok3Ae--SAyqNm-12" vertex="1">
          <mxGeometry x="168" y="48" width="84" height="28" as="geometry" />
        </mxCell>
        <mxCell id="iDECFh6Ok3Ae--SAyqNm-17" value="AZ 2" style="fillColor=none;strokeColor=#147EBA;dashed=1;verticalAlign=top;fontStyle=0;fontColor=#147EBA;whiteSpace=wrap;html=1;" parent="y_hJPUTwGHVDO47t9u5H-20" vertex="1">
          <mxGeometry x="768" y="288" width="136" height="244" as="geometry" />
        </mxCell>
        <mxCell id="iDECFh6Ok3Ae--SAyqNm-18" value="" style="sketch=0;outlineConnect=0;fontColor=#232F3E;gradientColor=none;fillColor=#3333FF;strokeColor=none;dashed=0;verticalLabelPosition=bottom;verticalAlign=top;align=center;html=1;fontSize=12;fontStyle=0;aspect=fixed;pointerEvents=1;shape=mxgraph.aws4.aurora_instance;" parent="y_hJPUTwGHVDO47t9u5H-20" vertex="1">
          <mxGeometry x="608" y="360" width="40" height="40" as="geometry" />
        </mxCell>
        <mxCell id="iDECFh6Ok3Ae--SAyqNm-19" value="&lt;p style=&quot;line-height: 60%;&quot;&gt;&lt;font style=&quot;font-size: 10px;&quot; data-font-src=&quot;https://fonts.googleapis.com/css?family=Architects+Daughter&quot; face=&quot;Architects Daughter&quot;&gt;Aurora Serverless&lt;br&gt;Read replica&lt;/font&gt;&lt;/p&gt;" style="text;html=1;align=center;verticalAlign=middle;resizable=0;points=[];autosize=1;strokeColor=none;fillColor=none;" parent="y_hJPUTwGHVDO47t9u5H-20" vertex="1">
          <mxGeometry x="780" y="382" width="112" height="56" as="geometry" />
        </mxCell>
        <mxCell id="iDECFh6Ok3Ae--SAyqNm-20" value="&lt;p style=&quot;line-height: 60%;&quot;&gt;&lt;font style=&quot;font-size: 10px;&quot; data-font-src=&quot;https://fonts.googleapis.com/css?family=Architects+Daughter&quot; face=&quot;Architects Daughter&quot;&gt;Aurora Serverless&lt;br&gt;Master&lt;/font&gt;&lt;/p&gt;" style="text;html=1;align=center;verticalAlign=middle;resizable=0;points=[];autosize=1;strokeColor=none;fillColor=none;" parent="y_hJPUTwGHVDO47t9u5H-20" vertex="1">
          <mxGeometry x="574" y="382" width="112" height="56" as="geometry" />
        </mxCell>
        <mxCell id="iDECFh6Ok3Ae--SAyqNm-21" value="" style="sketch=0;outlineConnect=0;fontColor=#232F3E;gradientColor=none;fillColor=#3333FF;strokeColor=none;dashed=0;verticalLabelPosition=bottom;verticalAlign=top;align=center;html=1;fontSize=12;fontStyle=0;aspect=fixed;pointerEvents=1;shape=mxgraph.aws4.aurora_instance;" parent="y_hJPUTwGHVDO47t9u5H-20" vertex="1">
          <mxGeometry x="816" y="360" width="40" height="40" as="geometry" />
        </mxCell>
        <mxCell id="iDECFh6Ok3Ae--SAyqNm-22" value="" style="endArrow=classic;startArrow=classic;html=1;rounded=0;sketch=1;curveFitting=1;jiggle=2;fillColor=#e1d5e7;strokeColor=#9673a6;" parent="y_hJPUTwGHVDO47t9u5H-20" edge="1">
          <mxGeometry width="50" height="50" relative="1" as="geometry">
            <mxPoint x="664" y="384" as="sourcePoint" />
            <mxPoint x="792" y="384" as="targetPoint" />
          </mxGeometry>
        </mxCell>
        <mxCell id="iDECFh6Ok3Ae--SAyqNm-23" value="" style="sketch=0;outlineConnect=0;fontColor=#232F3E;gradientColor=none;fillColor=#7AA116;strokeColor=none;dashed=0;verticalLabelPosition=bottom;verticalAlign=top;align=center;html=1;fontSize=12;fontStyle=0;aspect=fixed;pointerEvents=1;shape=mxgraph.aws4.volume;" parent="y_hJPUTwGHVDO47t9u5H-20" vertex="1">
          <mxGeometry x="856" y="468" width="34.97" height="44" as="geometry" />
        </mxCell>
        <mxCell id="iDECFh6Ok3Ae--SAyqNm-24" value="" style="sketch=0;outlineConnect=0;fontColor=#232F3E;gradientColor=none;fillColor=#ED7100;strokeColor=none;dashed=0;verticalLabelPosition=bottom;verticalAlign=top;align=center;html=1;fontSize=12;fontStyle=0;aspect=fixed;pointerEvents=1;shape=mxgraph.aws4.instance2;" parent="y_hJPUTwGHVDO47t9u5H-20" vertex="1">
          <mxGeometry x="780" y="464" width="52" height="52" as="geometry" />
        </mxCell>
        <mxCell id="iDECFh6Ok3Ae--SAyqNm-25" value="&lt;font data-font-src=&quot;https://fonts.googleapis.com/css?family=Architects+Daughter&quot; face=&quot;Architects Daughter&quot;&gt;EBS&lt;/font&gt;" style="text;html=1;align=center;verticalAlign=middle;resizable=0;points=[];autosize=1;strokeColor=none;fillColor=none;" parent="y_hJPUTwGHVDO47t9u5H-20" vertex="1">
          <mxGeometry x="851.48" y="480" width="44" height="28" as="geometry" />
        </mxCell>
        <mxCell id="iDECFh6Ok3Ae--SAyqNm-26" value="" style="sketch=0;outlineConnect=0;fontColor=#232F3E;gradientColor=none;fillColor=#7AA116;strokeColor=none;dashed=0;verticalLabelPosition=bottom;verticalAlign=top;align=center;html=1;fontSize=12;fontStyle=0;aspect=fixed;pointerEvents=1;shape=mxgraph.aws4.snapshot;" parent="y_hJPUTwGHVDO47t9u5H-20" vertex="1">
          <mxGeometry x="736" y="556" width="37.33" height="52" as="geometry" />
        </mxCell>
        <mxCell id="iDECFh6Ok3Ae--SAyqNm-27" value="" style="endArrow=classic;html=1;rounded=0;labelBackgroundColor=default;hachureGap=4;strokeColor=#82b366;align=center;verticalAlign=middle;fontFamily=Architects Daughter;fontSource=https://fonts.googleapis.com/css?family=Architects+Daughter;fontSize=16;fontColor=default;shape=connector;fillColor=#d5e8d4;strokeWidth=1;sketch=1;curveFitting=1;jiggle=2;" parent="y_hJPUTwGHVDO47t9u5H-20" edge="1">
          <mxGeometry width="50" height="50" relative="1" as="geometry">
            <mxPoint x="872" y="572" as="sourcePoint" />
            <mxPoint x="872" y="512" as="targetPoint" />
          </mxGeometry>
        </mxCell>
        <mxCell id="iDECFh6Ok3Ae--SAyqNm-28" value="" style="endArrow=classic;html=1;rounded=0;labelBackgroundColor=default;hachureGap=4;strokeColor=#82b366;align=center;verticalAlign=middle;fontFamily=Architects Daughter;fontSource=https://fonts.googleapis.com/css?family=Architects+Daughter;fontSize=16;fontColor=default;shape=connector;fillColor=#d5e8d4;strokeWidth=1;sketch=1;curveFitting=1;jiggle=2;" parent="y_hJPUTwGHVDO47t9u5H-20" edge="1">
          <mxGeometry width="50" height="50" relative="1" as="geometry">
            <mxPoint x="656" y="572" as="sourcePoint" />
            <mxPoint x="656" y="512" as="targetPoint" />
          </mxGeometry>
        </mxCell>
        <mxCell id="iDECFh6Ok3Ae--SAyqNm-29" value="" style="endArrow=none;html=1;rounded=0;labelBackgroundColor=default;hachureGap=4;strokeColor=#82b366;align=center;verticalAlign=middle;fontFamily=Architects Daughter;fontSource=https://fonts.googleapis.com/css?family=Architects+Daughter;fontSize=16;fontColor=default;shape=connector;fillColor=#d5e8d4;sketch=1;curveFitting=1;jiggle=2;" parent="y_hJPUTwGHVDO47t9u5H-20" edge="1">
          <mxGeometry width="50" height="50" relative="1" as="geometry">
            <mxPoint x="772" y="572" as="sourcePoint" />
            <mxPoint x="872" y="572" as="targetPoint" />
          </mxGeometry>
        </mxCell>
        <mxCell id="iDECFh6Ok3Ae--SAyqNm-30" value="" style="endArrow=none;html=1;rounded=0;labelBackgroundColor=default;hachureGap=4;strokeColor=#82b366;align=center;verticalAlign=middle;fontFamily=Architects Daughter;fontSource=https://fonts.googleapis.com/css?family=Architects+Daughter;fontSize=16;fontColor=default;shape=connector;fillColor=#d5e8d4;sketch=1;curveFitting=1;jiggle=2;" parent="y_hJPUTwGHVDO47t9u5H-20" edge="1">
          <mxGeometry width="50" height="50" relative="1" as="geometry">
            <mxPoint x="656" y="572" as="sourcePoint" />
            <mxPoint x="736" y="572" as="targetPoint" />
          </mxGeometry>
        </mxCell>
        <mxCell id="iDECFh6Ok3Ae--SAyqNm-31" value="&lt;font style=&quot;font-size: 10px;&quot; data-font-src=&quot;https://fonts.googleapis.com/css?family=Architects+Daughter&quot; face=&quot;Architects Daughter&quot;&gt;EBS Snapshot&lt;br&gt;+ tags&lt;/font&gt;" style="text;html=1;align=center;verticalAlign=middle;resizable=0;points=[];autosize=1;strokeColor=none;fillColor=none;" parent="y_hJPUTwGHVDO47t9u5H-20" vertex="1">
          <mxGeometry x="710.6700000000001" y="604" width="88" height="44" as="geometry" />
        </mxCell>
        <mxCell id="iDECFh6Ok3Ae--SAyqNm-32" value="&lt;font style=&quot;font-size: 10px;&quot; data-font-src=&quot;https://fonts.googleapis.com/css?family=Architects+Daughter&quot; face=&quot;Architects Daughter&quot;&gt;EBS Snapshot + attached&lt;br&gt;On ASG Launch Lifecycle hook&lt;/font&gt;" style="text;html=1;align=center;verticalAlign=middle;resizable=0;points=[];autosize=1;strokeColor=none;fillColor=none;" parent="y_hJPUTwGHVDO47t9u5H-20" vertex="1">
          <mxGeometry x="781.3299999999999" y="568" width="172" height="44" as="geometry" />
        </mxCell>
        <mxCell id="iDECFh6Ok3Ae--SAyqNm-33" value="" style="endArrow=classic;html=1;rounded=0;labelBackgroundColor=default;hachureGap=4;strokeColor=#e08a4c;align=center;verticalAlign=middle;fontFamily=Architects Daughter;fontSource=https://fonts.googleapis.com/css?family=Architects+Daughter;fontSize=16;fontColor=default;shape=connector;fillColor=#ffe6cc;strokeWidth=2;sketch=1;curveFitting=1;jiggle=2;" parent="y_hJPUTwGHVDO47t9u5H-20" edge="1">
          <mxGeometry width="50" height="50" relative="1" as="geometry">
            <mxPoint x="492" y="504" as="sourcePoint" />
            <mxPoint x="548" y="504" as="targetPoint" />
          </mxGeometry>
        </mxCell>
        <mxCell id="iDECFh6Ok3Ae--SAyqNm-34" value="&lt;font style=&quot;font-size: 9px;&quot; face=&quot;Architects Daughter&quot;&gt;&lt;br&gt;&lt;/font&gt;" style="text;html=1;align=center;verticalAlign=middle;resizable=0;points=[];autosize=1;strokeColor=none;fillColor=none;" parent="y_hJPUTwGHVDO47t9u5H-20" vertex="1">
          <mxGeometry x="794" y="480" width="24" height="28" as="geometry" />
        </mxCell>
        <mxCell id="iDECFh6Ok3Ae--SAyqNm-35" value="&lt;p style=&quot;line-height: 100%;&quot;&gt;&lt;font style=&quot;font-size: 10px;&quot; data-font-src=&quot;https://fonts.googleapis.com/css?family=Architects+Daughter&quot; face=&quot;Architects Daughter&quot;&gt;Ec2 User Data&lt;br&gt;Attachment Based&amp;nbsp;&lt;br&gt;on Tag&lt;/font&gt;&lt;/p&gt;" style="text;html=1;align=center;verticalAlign=middle;resizable=0;points=[];autosize=1;strokeColor=none;fillColor=none;" parent="y_hJPUTwGHVDO47t9u5H-20" vertex="1">
          <mxGeometry x="388" y="464" width="112" height="76" as="geometry" />
        </mxCell>
        <mxCell id="hkd7bBLayvMn2O3-BkLN-3" value="&lt;p style=&quot;line-height: 100%; font-size: 9px;&quot;&gt;&lt;font style=&quot;font-size: 9px;&quot; data-font-src=&quot;https://fonts.googleapis.com/css?family=Architects+Daughter&quot; face=&quot;Architects Daughter&quot;&gt;Test/&lt;br&gt;Cutover&lt;br&gt;Instance&lt;/font&gt;&lt;/p&gt;" style="text;html=1;align=center;verticalAlign=middle;resizable=0;points=[];autosize=1;strokeColor=none;fillColor=none;" parent="y_hJPUTwGHVDO47t9u5H-20" vertex="1">
          <mxGeometry x="778" y="458" width="56" height="60" as="geometry" />
        </mxCell>
        <mxCell id="y_hJPUTwGHVDO47t9u5H-70" value="&lt;font style=&quot;font-size: 10px;&quot; data-font-src=&quot;https://fonts.googleapis.com/css?family=Architects+Daughter&quot; face=&quot;Architects Daughter&quot;&gt;&lt;b&gt;TCP 1500&lt;br&gt;Data&lt;br&gt;Transfer&lt;/b&gt;&lt;/font&gt;" style="text;html=1;align=center;verticalAlign=middle;resizable=0;points=[];autosize=1;strokeColor=none;fillColor=none;" parent="1" vertex="1">
          <mxGeometry x="-212" y="-336" width="68" height="56" as="geometry" />
        </mxCell>
        <mxCell id="y_hJPUTwGHVDO47t9u5H-75" value="" style="endArrow=none;html=1;rounded=0;labelBackgroundColor=default;hachureGap=4;strokeColor=#6c8ebf;align=center;verticalAlign=middle;fontFamily=Architects Daughter;fontSource=https%3A%2F%2Ffonts.googleapis.com%2Fcss%3Ffamily%3DArchitects%2BDaughter;fontSize=16;fontColor=default;shape=connector;fillColor=#dae8fc;sketch=1;curveFitting=1;jiggle=2;" parent="1" edge="1">
          <mxGeometry width="50" height="50" relative="1" as="geometry">
            <mxPoint x="-308" y="-256" as="sourcePoint" />
            <mxPoint x="-192" y="-256" as="targetPoint" />
          </mxGeometry>
        </mxCell>
        <mxCell id="y_hJPUTwGHVDO47t9u5H-76" value="" style="sketch=0;aspect=fixed;pointerEvents=1;shadow=0;dashed=0;html=1;strokeColor=#b85450;labelPosition=center;verticalLabelPosition=bottom;verticalAlign=top;align=center;fillColor=#f8cecc;shape=mxgraph.mscae.enterprise.lock;strokeWidth=2;" parent="1" vertex="1">
          <mxGeometry x="-184.38" y="-270.75" width="16.77" height="21.5" as="geometry" />
        </mxCell>
        <mxCell id="UuHaYNKzipl4Wir7eI8Y-1" value="&lt;font data-font-src=&quot;https://fonts.googleapis.com/css?family=Architects+Daughter&quot; face=&quot;Architects Daughter&quot;&gt;&lt;b&gt;Direct Connect&lt;br&gt;or&lt;br&gt;VPN&lt;/b&gt;&lt;/font&gt;" style="text;html=1;align=center;verticalAlign=middle;resizable=0;points=[];autosize=1;strokeColor=none;fillColor=none;" parent="1" vertex="1">
          <mxGeometry x="-228.5" y="-520" width="108" height="60" as="geometry" />
        </mxCell>
        <mxCell id="UuHaYNKzipl4Wir7eI8Y-11" value="" style="endArrow=classic;html=1;rounded=0;labelBackgroundColor=default;hachureGap=4;strokeColor=#82b366;align=center;verticalAlign=middle;fontFamily=Architects Daughter;fontSource=https%3A%2F%2Ffonts.googleapis.com%2Fcss%3Ffamily%3DArchitects%2BDaughter;fontSize=16;fontColor=default;shape=connector;fillColor=#d5e8d4;strokeWidth=2;sketch=1;curveFitting=1;jiggle=2;entryX=0.133;entryY=0.333;entryDx=0;entryDy=0;entryPerimeter=0;" parent="1" target="UuHaYNKzipl4Wir7eI8Y-8" edge="1">
          <mxGeometry width="50" height="50" relative="1" as="geometry">
            <mxPoint x="-452" y="-148" as="sourcePoint" />
            <mxPoint x="-136" y="-148" as="targetPoint" />
          </mxGeometry>
        </mxCell>
        <mxCell id="UuHaYNKzipl4Wir7eI8Y-12" value="&lt;font style=&quot;font-size: 10px;&quot; data-font-src=&quot;https://fonts.googleapis.com/css?family=Architects+Daughter&quot; face=&quot;Architects Daughter&quot;&gt;&lt;b&gt;UDP 53&lt;br&gt;Data&lt;br&gt;Transfer&lt;/b&gt;&lt;/font&gt;" style="text;html=1;align=center;verticalAlign=middle;resizable=0;points=[];autosize=1;strokeColor=none;fillColor=none;" parent="1" vertex="1">
          <mxGeometry x="-216" y="-212" width="68" height="56" as="geometry" />
        </mxCell>
        <mxCell id="y_hJPUTwGHVDO47t9u5H-72" value="" style="whiteSpace=wrap;html=1;shape=mxgraph.basic.document;fillColor=none;strokeColor=#CC0000;strokeWidth=3;" parent="1" vertex="1">
          <mxGeometry x="-190.5" y="-388" width="32" height="40" as="geometry" />
        </mxCell>
        <mxCell id="y_hJPUTwGHVDO47t9u5H-74" value="" style="endArrow=none;html=1;rounded=0;labelBackgroundColor=default;hachureGap=4;strokeColor=#f5ab50;align=center;verticalAlign=middle;fontFamily=Architects Daughter;fontSource=https%3A%2F%2Ffonts.googleapis.com%2Fcss%3Ffamily%3DArchitects%2BDaughter;fontSize=16;fontColor=default;shape=connector;fillColor=#dae8fc;sketch=1;curveFitting=1;jiggle=2;exitX=1.001;exitY=0.174;exitDx=0;exitDy=0;exitPerimeter=0;" parent="1" edge="1">
          <mxGeometry width="50" height="50" relative="1" as="geometry">
            <mxPoint x="-308" y="-363.80000000000007" as="sourcePoint" />
            <mxPoint x="-196" y="-364" as="targetPoint" />
          </mxGeometry>
        </mxCell>
        <mxCell id="y_hJPUTwGHVDO47t9u5H-71" value="" style="sketch=0;aspect=fixed;pointerEvents=1;shadow=0;dashed=0;html=1;strokeColor=#b85450;labelPosition=center;verticalLabelPosition=bottom;verticalAlign=top;align=center;fillColor=#f8cecc;shape=mxgraph.mscae.enterprise.lock;strokeWidth=2;" parent="1" vertex="1">
          <mxGeometry x="-182.88" y="-378.75" width="16.77" height="21.5" as="geometry" />
        </mxCell>
        <mxCell id="y_hJPUTwGHVDO47t9u5H-78" value="&lt;font style=&quot;font-size: 10px;&quot; data-font-src=&quot;https://fonts.googleapis.com/css?family=Architects+Daughter&quot; face=&quot;Architects Daughter&quot;&gt;&lt;b&gt;TCP 443&lt;br&gt;Control Protocols&lt;/b&gt;&lt;/font&gt;" style="text;html=1;align=center;verticalAlign=middle;resizable=0;points=[];autosize=1;strokeColor=none;fillColor=none;" parent="1" vertex="1">
          <mxGeometry x="-232" y="-432" width="108" height="44" as="geometry" />
        </mxCell>
      </root>
    </mxGraphModel>
  </diagram>
</mxfile>
